<svg width="17" height="16" viewBox="0 0 17 16" fill="none" xmlns="http://www.w3.org/2000/svg">
<g clip-path="url(#clip0_2482_206313)">
<path d="M3.88587 10.9081H4.26087V10.5331H3.88587V10.9081ZM0.682994 10.4897L0.950524 10.2268L0.94702 10.2234L0.682994 10.4897ZM0.682994 0.682194L0.418962 0.415889L0.417163 0.417697L0.682994 0.682194ZM15.317 0.682194L15.0495 0.94502L15.053 0.948494L15.317 0.682194ZM15.3554 9.4734V9.8484H16.1054V9.4734H15.3554ZM7.79598 11.5695C7.93984 11.4205 7.9357 11.1831 7.78672 11.0393C7.63774 10.8954 7.40034 10.8995 7.25647 11.0485L7.79598 11.5695ZM3.88587 15.0787H3.51087V16.0068L4.15562 15.3392L3.88587 15.0787ZM4.26087 11.309V10.9081H3.51087V11.309H4.26087ZM3.88587 10.5331H1.67154V11.2831H3.88587V10.5331ZM1.67154 10.5331C1.40627 10.5331 1.14655 10.4264 0.950501 10.2269L0.415487 10.7525C0.751454 11.0944 1.20349 11.2831 1.67154 11.2831V10.5331ZM0.94702 10.2234C0.755263 10.0332 0.644604 9.76484 0.644604 9.47692H-0.105396C-0.105396 9.95559 0.0787096 10.4186 0.418968 10.756L0.94702 10.2234ZM0.644604 9.47692V1.69494H-0.105396V9.47692H0.644604ZM0.644604 1.69494C0.644604 1.4062 0.757071 1.13941 0.948825 0.946692L0.417163 0.417697C0.0840907 0.752449 -0.105396 1.21005 -0.105396 1.69494H0.644604ZM0.94702 0.948494C1.14842 0.748814 1.40423 0.638733 1.67154 0.638733V-0.111267C1.19114 -0.111267 0.749584 0.0881019 0.418968 0.415895L0.94702 0.948494ZM1.67154 0.638733H14.3285V-0.111267H1.67154V0.638733ZM14.3285 0.638733C14.5937 0.638733 14.8535 0.745439 15.0495 0.944997L15.5845 0.419392C15.2485 0.0774113 14.7965 -0.111267 14.3285 -0.111267V0.638733ZM15.053 0.948494C15.2447 1.13861 15.3554 1.40702 15.3554 1.69494H16.1054C16.1054 1.21627 15.9213 0.753249 15.581 0.415895L15.053 0.948494ZM15.3554 1.69494V9.4734H16.1054V1.69494H15.3554ZM7.25647 11.0485L3.61612 14.8182L4.15562 15.3392L7.79598 11.5695L7.25647 11.0485ZM4.26087 15.0787V11.309H3.51087V15.0787H4.26087Z" fill="#8B8B8B"/>
<path d="M2.46237 3.28088H13.8102" stroke="#8B8B8B" stroke-width="0.75" stroke-linecap="round"/>
<path d="M2.46237 5.3767H6.6654" stroke="#8B8B8B" stroke-width="0.75" stroke-linecap="round"/>
</g>
<path fill-rule="evenodd" clip-rule="evenodd" d="M16 10.7684C16 13.0691 14.0934 14.9343 11.7414 14.9343C9.38948 14.9343 7.48288 13.0691 7.48288 10.7684C7.48288 8.46766 9.38948 6.60254 11.7414 6.60254C14.0934 6.60254 16 8.46766 16 10.7684ZM11.504 9C11.504 8.79604 11.673 8.63069 11.8815 8.63069C12.09 8.63069 12.259 8.79604 12.259 9V11.3155C12.259 11.5195 12.09 11.6848 11.8815 11.6848C11.673 11.6848 11.504 11.5195 11.504 11.3155V9ZM11.8772 13.2735C12.1289 13.2735 12.3329 13.074 12.3329 12.8279C12.3329 12.5817 12.1289 12.3822 11.8772 12.3822C11.6256 12.3822 11.4216 12.5817 11.4216 12.8279C11.4216 13.074 11.6256 13.2735 11.8772 13.2735Z" fill="url(#paint0_linear_2482_206313)"/>
<path d="M11.7414 15.0027C14.0934 15.0027 16 13.1375 16 10.8368C16 8.53602 14.0934 6.6709 11.7414 6.6709C9.38948 6.6709 7.48288 8.53602 7.48288 10.8368C7.48288 13.1375 9.38948 15.0027 11.7414 15.0027Z" stroke="#8B8B8B" stroke-width="0.75" stroke-linecap="round" stroke-linejoin="round"/>
<defs>
<linearGradient id="paint0_linear_2482_206313" x1="11.7414" y1="6.60254" x2="11.7414" y2="14.9343" gradientUnits="userSpaceOnUse">
<stop stop-color="#FF6C37"/>
<stop offset="1" stop-color="#FFB400"/>
</linearGradient>
<clipPath id="clip0_2482_206313">
<rect width="16" height="16" fill="white"/>
</clipPath>
</defs>
</svg>
